<svg width="77" height="77" viewBox="0 0 77 77" fill="none" xmlns="http://www.w3.org/2000/svg">
<path d="M38.5 0C28.2915 0 18.492 4.05874 11.2793 11.2763C4.05918 18.4967 0.00206606 28.289 0 38.5C0 48.7067 4.06055 58.5062 11.2793 65.7237C18.492 72.9413 28.2915 77 38.5 77C48.7085 77 58.508 72.9413 65.7207 65.7237C72.9395 58.5062 77 48.7067 77 38.5C77 28.2933 72.9395 18.4938 65.7207 11.2763C58.508 4.05874 48.7085 0 38.5 0Z" fill="url(#paint0_linear_25007_33)"/>
<path d="M17.4274 38.0934C28.6526 33.2039 36.136 29.9803 39.8778 28.4227C50.5735 23.9753 52.7933 23.2029 54.2431 23.1767C54.5619 23.1716 55.2717 23.2504 55.7349 23.6249C56.1199 23.9407 56.2282 24.3678 56.2824 24.6677C56.3305 24.9673 56.3967 25.6501 56.3425 26.1831C55.765 32.2709 53.2565 47.044 51.9812 53.8627C51.4458 56.7478 50.381 57.7152 49.3524 57.8096C47.1146 58.0153 45.4182 56.3322 43.2525 54.9131C39.8657 52.6915 37.9528 51.3091 34.6622 49.1417C30.8603 46.6368 33.3267 45.2598 35.4924 43.01C36.0578 42.421 45.9114 33.4608 46.0979 32.648C46.122 32.5464 46.146 32.1674 45.9175 31.9677C45.6949 31.7674 45.364 31.8359 45.1234 31.8901C44.7805 31.9671 39.3724 35.5452 28.8812 42.6238C27.3472 43.6789 25.9576 44.1932 24.7064 44.1662C23.3348 44.1367 20.6879 43.3889 18.7208 42.7501C16.3146 41.9662 14.3956 41.5518 14.564 40.2205C14.6482 39.5275 15.6047 38.8183 17.4274 38.0934Z" fill="white"/>
<defs>
<linearGradient id="paint0_linear_25007_33" x1="38.5" y1="0" x2="38.5" y2="77" gradientUnits="userSpaceOnUse">
<stop stop-color="#2AABEE"/>
<stop offset="1" stop-color="#229ED9"/>
</linearGradient>
</defs>
</svg>
