<svg width="57" height="57" viewBox="0 0 57 57" fill="none" xmlns="http://www.w3.org/2000/svg">
<path fill-rule="evenodd" clip-rule="evenodd" d="M31.9913 12.9913C32.3252 12.6577 32.778 12.4703 33.25 12.4703C33.722 12.4703 34.1748 12.6577 34.5087 12.9913L48.7588 27.2413C49.0923 27.5753 49.2797 28.028 49.2797 28.5C49.2797 28.9721 49.0923 29.4248 48.7588 29.7588L34.5087 44.0088C34.3457 44.1838 34.149 44.3241 33.9305 44.4215C33.712 44.5189 33.4762 44.5712 33.237 44.5754C32.9978 44.5796 32.7603 44.5356 32.5385 44.4461C32.3167 44.3565 32.1152 44.2231 31.946 44.054C31.7769 43.8848 31.6435 43.6834 31.554 43.4616C31.4644 43.2398 31.4204 43.0022 31.4246 42.763C31.4288 42.5239 31.4812 42.288 31.5785 42.0695C31.6759 41.851 31.8162 41.6543 31.9913 41.4913L43.2013 30.2813H9.5C9.02758 30.2813 8.57451 30.0936 8.24047 29.7596C7.90642 29.4255 7.71875 28.9724 7.71875 28.5C7.71875 28.0276 7.90642 27.5745 8.24047 27.2405C8.57451 26.9064 9.02758 26.7188 9.5 26.7188H43.2013L31.9913 15.5088C31.6577 15.1748 31.4703 14.7221 31.4703 14.25C31.4703 13.778 31.6577 13.3253 31.9913 12.9913Z" fill="black"/>
</svg>
