<svg width="77" height="77" viewBox="0 0 77 77" fill="none" xmlns="http://www.w3.org/2000/svg">
<path d="M30.4439 0.009625L32.7827 0H44.2172L46.5593 0.009625L49.4917 0.0417083L50.881 0.0641667L52.222 0.0994583L53.515 0.144375L54.7598 0.195708L55.9597 0.263083L57.1147 0.343292L58.2216 0.439542L59.29 0.545417C64.8725 1.17425 68.7 2.52175 71.5875 5.40925C74.475 8.29675 75.8225 12.1211 76.4514 17.7068L76.5605 18.7752L76.6535 19.8852L76.7337 21.0402L76.7979 22.237L76.8781 24.1235L76.9166 25.4389L76.9583 27.505L76.9872 30.4407L77 33.5848L76.9968 44.214L76.9872 46.5561L76.9551 49.4885L76.9326 50.8777L76.8973 52.2188L76.8524 53.5118L76.8011 54.7566L76.7337 55.9565L76.6535 57.1115L76.5572 58.2184L76.4514 59.2868C75.8225 64.8693 74.475 68.6968 71.5875 71.5843C68.7 74.4718 64.8757 75.8193 59.29 76.4482L58.2216 76.5572L57.1115 76.6503L55.9565 76.7305L54.7598 76.7947L52.8733 76.8749L51.5579 76.9134L49.4917 76.9551L46.5561 76.984L43.412 76.9968L32.7827 76.9936L30.4407 76.984L27.5083 76.9519L26.119 76.9294L24.778 76.8941L23.485 76.8492L22.2402 76.7979L21.0402 76.7305L19.8853 76.6503L18.7784 76.554L17.71 76.4482C12.1275 75.8193 8.29996 74.4718 5.41246 71.5843C2.52496 68.6968 1.17746 64.8725 0.548625 59.2868L0.439542 58.2184L0.3465 57.1083L0.266292 55.9533L0.202125 54.7566L0.121917 52.8701L0.0834167 51.5547L0.0417083 49.4885L0.0128333 46.5529L0 43.4087L0.00320833 32.7795L0.0128333 30.4375L0.0449167 27.505L0.067375 26.1158L0.102667 24.7747L0.147583 23.4818L0.198917 22.237L0.266292 21.037L0.3465 19.882L0.44275 18.7752L0.548625 17.7068C1.17746 12.1243 2.52496 8.29675 5.41246 5.40925C8.29996 2.52175 12.1243 1.17425 17.71 0.545417L18.7784 0.436333L19.8885 0.343292L21.0435 0.263083L22.2402 0.198917L24.1267 0.118708L25.4421 0.0802083L27.5083 0.0385L30.4439 0.009625ZM21.7846 23.4176H12.9938C13.4108 43.4376 23.4208 55.4689 40.9704 55.4689H41.965V44.0151C48.4138 44.6568 53.2904 49.373 55.2475 55.4689H64.3592C61.8567 46.3572 55.2796 41.3201 51.1729 39.3951C55.2796 37.021 61.0546 31.246 62.4342 23.4176H54.1567C52.36 29.7701 47.0342 35.5451 41.965 36.0905V23.4176H33.6875V45.6193C28.5542 44.336 22.0733 38.1118 21.7846 23.4176Z" fill="#4680C2"/>
</svg>
